<?xml version="1.0" encoding="UTF-8"?>
<svg width="17px" height="17px" viewBox="0 0 17 17" version="1.1" xmlns="http://www.w3.org/2000/svg" xmlns:xlink="http://www.w3.org/1999/xlink">
    <!-- Generator: Sketch 43.1 (39012) - http://www.bohemiancoding.com/sketch -->
    <title>google</title>
    <desc>Created with Sketch.</desc>
    <defs></defs>
    <g id="Page-1" stroke="none" stroke-width="1" fill="none" fill-rule="evenodd">
        <path d="M6.80034344,4.06857998 L9.62257381,0.1796888 L10.4484773,1.31774224 L11.2791003,2.46229884 L10.6750109,2.92402338 C10.3446495,3.17764672 8.74475634,4.4132476 7.12598541,5.66835796 C5.50249504,6.92346833 4.13385489,7.950968 4.08194096,7.950968 C4.01114923,7.950968 4.84177221,6.76739243 6.80034344,4.06857998 Z" id="Shape" fill="#000000" fill-rule="nonzero" transform="translate(7.678443, 4.065328) scale(-1, 1) rotate(-180.000000) translate(-7.678443, -4.065328) "></path>
        <path d="M3.33626805,16.3901166 C3.16164845,16.123487 3.156929,15.9023794 3.156929,8.3457046 C3.156929,0.717494973 3.16164845,0.574425397 3.3409875,0.346814709 C3.41177923,0.255770434 3.69966561,0.63295386 6.36615416,4.30724068 L9.31580964,8.37171725 L6.36143471,12.442697 C3.58167939,16.2730597 3.40705978,16.5006704 3.33626805,16.3901166 Z" id="Shape" fill="#000000" fill-rule="nonzero" transform="translate(6.236369, 8.372695) scale(-1, 1) rotate(-180.000000) translate(-6.236369, -8.372695) "></path>
        <path d="M10.802436,9.57675833 L9.92933797,8.37367327 L10.802436,7.17709136 L11.675534,5.9740063 L12.7562878,6.81941743 C13.3556578,7.28114196 13.9078333,7.74936967 13.9927834,7.85992343 C14.252353,8.2110942 14.2476336,8.5752713 13.978625,8.91993892 C13.9078333,9.01748636 13.4453273,9.40117294 12.9497852,9.78485953 C12.4589625,10.162043 11.9681398,10.5392264 11.864312,10.6237675 L11.6708146,10.7733402 L10.802436,9.57675833 Z" id="Shape" fill="#000000" fill-rule="nonzero" transform="translate(12.056661, 8.373673) scale(-1, 1) rotate(-180.000000) translate(-12.056661, -8.373673) "></path>
        <path d="M7.94716949,14.3298471 C3.91676025,8.73062416 3.87428521,8.6720957 4.07722151,8.78915263 C4.22824387,8.86719058 10.6419747,13.8030909 11.1422363,14.2192933 L11.2696614,14.3233439 L10.434319,15.4744037 L9.59897656,16.6254635 L7.94716949,14.3298471 Z" id="Shape" fill="#000000" fill-rule="nonzero" transform="translate(7.641471, 12.694663) scale(-1, 1) rotate(-180.000000) translate(-7.641471, -12.694663) "></path>
    </g>
</svg>