<?xml version="1.0" encoding="UTF-8"?>
<svg width="140px" height="182px" viewBox="0 0 140 182" version="1.1" xmlns="http://www.w3.org/2000/svg" xmlns:xlink="http://www.w3.org/1999/xlink">
    <!-- Generator: Sketch 42 (36781) - http://www.bohemiancoding.com/sketch -->
    <title>Group 2</title>
    <desc>Created with Sketch.</desc>
    <defs>
        <circle id="path-1" cx="100" cy="100" r="100"></circle>
    </defs>
    <g id="Page-1" stroke="none" stroke-width="1" fill="none" fill-rule="evenodd">
        <g id="Group-2" transform="translate(-30.000000, -18.000000)">
            <mask id="mask-2" fill="white">
                <use xlink:href="#path-1"></use>
            </mask>
            <g id="Oval"></g>
            <g id="Group" mask="url(#mask-2)" fill="#000000">
                <g transform="translate(30.359521, 18.109188)" id="Shape">
                    <path d="M81.4913449,194.050961 C80.3994674,193.598231 79.0945406,193.118871 76.5645806,192.240042 C73.4753662,191.148165 70.5725699,190.10955 69.9067909,189.816607 C68.7616511,189.337246 64.8202397,187.872532 64.5805593,187.81927 C64.4207723,187.792639 63.701731,187.526327 62.9826897,187.233385 C62.2370173,186.940442 60.0266312,186.061614 58.0559254,185.315941 C53.6617843,183.611547 50.0932091,182.173464 49.4806924,181.827259 C49.2143808,181.694104 48.8948069,181.587579 48.73502,181.587579 C48.6018642,181.587579 47.8029294,181.268005 46.9507324,180.895169 C46.0985353,180.522333 45.1664447,180.096234 44.873502,179.963078 C38.6950732,177.353225 31.3715047,173.78465 28.8149134,172.160149 C27.0838881,171.068271 26.391478,169.736713 25.9387483,166.540974 C25.8588549,166.114876 25.7523302,165.449097 25.6724368,165.076261 C25.5925433,164.703424 25.4593875,163.984383 25.4061252,163.478391 C25.2729694,162.519669 25.1131824,161.587579 25.0332889,161.347899 C25.0066578,161.268005 24.9533955,161.108218 24.9267643,160.948431 C24.9001332,160.815275 24.7669774,160.016341 24.6338216,159.217406 C24.5006658,158.418471 24.3941411,157.69943 24.36751,157.619536 C24.3408788,157.539643 24.2343542,156.900495 24.1011984,156.154823 C23.8348868,154.397166 23.7549933,153.917805 23.5419441,153.012346 C23.3288948,151.973731 23.1691079,151.068271 23.0093209,149.630189 C22.9294274,148.96441 22.7962716,148.245369 22.7163782,148.032319 C22.6364847,147.81927 22.5033289,147.153491 22.4500666,146.567606 C22.3968043,145.98172 22.2902796,145.315941 22.183755,145.102892 C22.1038615,144.889843 21.9973369,144.410482 21.9707057,144.037646 C21.8109188,142.626194 20.7190413,136.714077 20.5858855,136.580921 C20.5326232,136.501028 20.3728362,136.447765 20.2929427,136.447765 C19.4141145,136.421134 11.1318242,132.559616 10.3861518,131.787313 C10.3062583,131.707419 9.90679095,131.467739 9.48069241,131.254689 C9.05459387,131.04164 8.2023968,130.375861 7.58988016,129.763345 C6.4713715,128.671467 6.07190413,127.659483 5.72569907,124.996367 C5.64580559,124.570269 5.53928096,123.664809 5.43275632,122.99903 C5.35286285,122.333251 5.24633822,121.37453 5.21970706,120.868538 C5.16644474,120.362546 5.05992011,119.510349 4.98002663,119.004357 C4.82023968,118.178791 4.68708389,116.953757 4.36750999,113.944436 C4.31424767,113.438444 4.20772304,112.666141 4.15446072,112.213411 C4.1011984,111.787313 3.94141145,110.642173 3.83488682,109.683451 C3.59520639,107.712745 3.56857523,107.473065 3.48868176,107.286647 C3.43541944,107.153491 3.32889481,106.301294 3.06258322,103.291973 C2.95605859,102.359883 2.84953395,101.507685 2.76964048,101.401161 C2.71637816,101.294636 2.58322237,100.22939 2.50332889,99.0576189 C2.34354194,97.060282 2.39680426,96.7673393 3.06258322,95.4890436 C3.72836218,94.1574857 4.04793609,93.9178053 11.6378162,88.9111475 C15.9520639,86.0616136 19.6271638,83.5849158 19.8135819,83.45176 C19.9733688,83.2919731 20.7190413,82.7859811 21.4913449,82.3066202 C22.2370173,81.8272594 23.0093209,81.268005 23.1691079,81.0549558 C23.4087883,80.762013 22.849534,79.4570863 20.6391478,75.0096828 C19.0945406,71.8938373 17.3368842,68.5116801 16.7776298,67.473065 C16.1917443,66.4610809 15.4727031,65.129523 15.1797603,64.5436375 C14.8868176,63.957752 14.1677763,62.7060876 13.5818908,61.773997 C12.9960053,60.8685377 12.5166445,59.9897094 12.5166445,59.8565536 C12.5166445,59.7233978 12.4101198,59.6168732 12.2503329,59.6168732 C12.1171771,59.6168732 11.9840213,59.4837174 11.9840213,59.3505616 C11.9840213,58.8712008 5.69906791,49.5502953 4.90013316,48.831254 C4.74034621,48.6980982 4.44740346,48.325262 4.23435419,48.0056881 C3.80825566,47.3665403 1.17177097,44.3039571 0.452729694,43.6381781 C0.0266311585,43.2387108 -3.12250226e-16,42.6528253 0.0532623169,37.3532247 L0.133155792,31.5476322 L4.28761651,35.6488306 C6.55126498,37.9124791 9.37416778,40.9750623 10.5459387,42.439776 C16.4846871,49.8698692 22.3701731,59.4570863 28.3621838,71.4943699 L31.4780293,77.7526921 L33.0492676,74.9297893 C35.2596538,70.9351156 38.5619174,66.1947693 41.4380826,62.8126122 C42.7962716,61.2413739 44.0479361,59.8565536 44.207723,59.750029 C44.5272969,59.5369797 44.3408788,59.1907747 41.0918775,54.1841169 C31.6111851,39.590242 19.4141145,26.807286 8.46870839,19.9364471 C7.19041278,19.1375124 6.17842876,18.3652088 6.20505992,18.2054218 C6.36484687,17.7526921 12.436751,13.2786575 16.3781625,10.6954351 C21.9174434,7.12685989 30.3328895,3.02566149 36.644474,0.868537654 C39.6804261,-0.170077526 39.5206391,-0.196708684 41.8109188,1.40116082 C42.4766977,1.85389052 43.0625832,2.27998905 43.1424767,2.35988253 C43.2223702,2.439776 43.9414115,2.91913686 44.7403462,3.45176002 C46.2849534,4.46374405 52.4900133,9.0443033 54.0612517,10.3492301 C54.5672437,10.7753286 56.0852197,11.9737307 57.3901465,13.0656082 C58.7217044,14.1308546 59.9201065,15.1162074 60.0798935,15.2759944 C60.2396804,15.4091502 61.0652463,16.1548226 61.9174434,16.8738639 C64.873502,19.4038239 66.7110519,21.1348492 71.3715047,25.795302 C77.3901465,31.8139438 79.7603196,34.4237973 84.1810919,39.8831848 C84.8202397,40.6821195 85.539281,41.3745297 85.7523302,41.4011608 C85.9653795,41.4544231 86.6045273,41.5875789 87.1371505,41.7207347 C87.6697736,41.8805217 88.1757656,41.9071528 88.2556591,41.8272594 C88.3621838,41.7473659 88.4154461,41.8006282 88.4154461,41.933784 C88.4154461,42.0669398 88.73502,42.2267267 89.1078562,42.2533579 C90.5459387,42.3598825 92.276964,43.4251289 94.0079893,45.1827853 C96.0585885,47.313278 97.9494008,49.3905084 99.6005326,51.3612141 C100.266312,52.1335177 100.985353,52.9590836 101.198402,53.198764 C101.411451,53.4384444 102.503329,54.7167401 103.595206,56.0216668 C104.687084,57.3532247 105.725699,58.578258 105.912117,58.7646761 C106.098535,58.9510942 106.258322,59.1907747 106.258322,59.2972993 C106.258322,59.4038239 106.604527,59.8565536 107.003995,60.2826522 C107.723036,61.0815869 110.679095,64.8898426 111.185087,65.6887773 C111.344874,65.9284578 111.664447,66.3545563 111.930759,66.647499 C112.197071,66.9670729 112.623169,67.5263273 112.86285,67.9524258 C113.10253,68.3518932 113.395473,68.6714671 113.501997,68.6714671 C113.608522,68.6714671 113.715047,68.8046229 113.715047,68.9644098 C113.715047,69.2573526 115.312916,71.4144764 115.659121,71.5476322 C115.765646,71.6008945 115.845539,71.7873126 115.845539,72.0003619 C115.845539,72.18678 116.005326,72.4797227 116.191744,72.6395097 C116.404794,72.7992966 117.256991,73.9710676 118.135819,75.2493632 C118.988016,76.55429 119.813582,77.726061 119.920107,77.8592167 C120.292943,78.3119464 124.633822,84.9963672 126.098535,87.3665403 C126.231691,87.6062207 127.190413,89.2040903 128.202397,90.9084844 C129.214381,92.6128785 130.146471,94.0509611 130.279627,94.1308546 C130.386152,94.210748 130.492676,94.5036908 130.492676,94.7700024 C130.492676,95.036314 130.599201,95.3026255 130.705726,95.3558879 C130.918775,95.4357813 132.703063,98.5516269 133.688415,100.495701 C133.901465,100.948431 134.141145,101.347899 134.221039,101.427792 C134.673768,101.880522 139.041278,111.094903 139.254328,112.080255 C139.627164,113.78465 139.30759,114.983052 136.005326,124.197432 C135.126498,126.700761 134.167776,129.124197 133.901465,129.603558 C133.635153,130.082918 133.422104,130.58891 133.422104,130.722066 C133.422104,130.855222 133.129161,131.600895 132.782956,132.373198 C132.436751,133.145502 131.95739,134.237379 131.71771,134.796634 C130.705726,137.299962 129.374168,140.069603 126.604527,145.502359 C123.062583,152.532985 121.944075,154.47706 117.496671,161.534317 C116.857523,162.519669 116.218375,163.584916 116.031957,163.877859 C115.845539,164.170801 115.659121,164.463744 115.579228,164.543638 C115.499334,164.623531 114.727031,165.688777 113.848202,166.940442 C112.996005,168.192106 112.197071,169.257353 112.063915,169.283984 C111.95739,169.337246 111.850866,169.497033 111.850866,169.630189 C111.850866,169.816607 108.601864,174.237379 108.122503,174.663478 C108.04261,174.743371 107.509987,175.40915 106.924101,176.128191 C106.338216,176.873864 105.75233,177.592905 105.592543,177.752692 C105.459387,177.93911 104.60719,178.897832 103.728362,179.883185 C101.491345,182.466407 96.644474,187.286647 94.2743009,189.337246 C93.1824234,190.269337 92.2237017,191.094903 92.1438083,191.174796 C92.0639148,191.254689 91.4780293,191.760681 90.8122503,192.293305 C89.7736352,193.092239 89.241012,193.305289 87.0838881,193.651494 C83.3821571,194.290642 82.2370173,194.370535 81.4913449,194.050961 Z M88.2822903,183.611547 C95.6591212,177.220069 102.023968,169.816607 108.948069,159.563611 C110.838881,156.740708 112.383489,154.370535 112.383489,154.343904 C112.383489,154.290642 113.368842,152.559616 114.540613,150.535648 C118.029294,144.623531 122.370173,135.888511 125.086551,129.390508 C127.58988,123.398498 130.652463,115.089576 130.439414,114.876527 C130.306258,114.743371 127.296937,114.317273 124.633822,114.077592 C123.6751,113.997699 122.716378,113.891174 122.503329,113.811281 C122.29028,113.758018 121.517976,113.651494 120.772304,113.544969 C120.053262,113.465076 119.201065,113.33192 118.908123,113.252026 C118.61518,113.198764 117.949401,113.092239 117.443409,113.038977 C116.937417,112.985715 115.446072,112.719403 114.114514,112.479723 C112.809587,112.240042 111.478029,111.973731 111.185087,111.920468 C108.415446,111.414476 98.6151798,108.804623 98.988016,108.698098 C99.1211718,108.644836 100.585885,108.884516 102.237017,109.230721 C103.861518,109.576926 105.272969,109.789976 105.326232,109.710082 C105.379494,109.630189 104.500666,106.487712 103.408788,102.75935 C102.316911,99.0309877 101.331558,95.6221994 101.198402,95.1694697 C101.091877,94.7433712 100.798935,93.704756 100.585885,92.9058213 C100.346205,92.1068865 100,90.9617467 99.8135819,90.3758612 L99.4673768,89.337246 L94.620506,87.9257946 C91.9573901,87.153491 87.9627164,85.795302 85.7523302,84.9164737 L81.7310253,83.3186042 L75.5525965,88.1921062 C72.1438083,90.8818532 64.8202397,96.5809211 59.2543276,100.868538 C53.6884154,105.156154 48.7882823,108.96441 48.3355526,109.310615 C47.9094541,109.630189 43.1691079,113.225395 37.816245,117.299962 C32.4633822,121.347899 27.8828229,124.863211 27.6431425,125.102892 C27.2170439,125.502359 27.2436751,125.715408 27.8295606,128.591574 C28.1757656,130.269337 28.5219707,132.026993 28.575233,132.453092 C28.6551265,132.905821 29.0279627,134.690109 29.3741678,136.447765 C29.747004,138.205422 30.1198402,140.016341 30.1731025,140.442439 C30.252996,140.895169 30.5459387,142.386514 30.8388815,143.771334 C31.3715047,146.327925 31.4513981,146.807286 31.9573901,151.094903 C32.3035952,154.104223 32.3834887,154.583584 32.8628495,157.220069 C33.0758988,158.39184 33.3422104,159.883185 33.4221039,160.548964 C33.5286285,161.188112 33.6617843,161.827259 33.7416778,161.960415 C33.7949401,162.06694 34.4873502,161.640841 35.2330226,161.028325 C37.0173103,159.53698 36.644474,159.856554 42.4766977,155.196101 C45.2729694,152.985715 47.8295606,150.908484 48.2023968,150.58891 C48.575233,150.295968 49.4806924,149.550295 50.1997337,148.96441 C50.9454061,148.378524 51.770972,147.712745 52.0639148,147.446434 C52.3568575,147.206753 53.8482024,145.98172 55.3928096,144.703424 C56.9374168,143.425129 58.828229,141.827259 59.6271638,141.134849 C62.1304927,139.030988 65.1131824,136.474397 65.4061252,136.181454 C65.5659121,136.048298 66.4447403,135.249363 67.3768309,134.450428 C71.3182423,131.068271 75.0466045,127.606221 78.1890812,124.410482 C80.8788282,121.694104 82.023968,120.762013 80.3728362,122.652825 C77.6031957,125.821933 67.7496671,135.781986 63.5952064,139.616873 C62.8229028,140.362546 61.3315579,141.720735 60.3195739,142.679456 C53.954727,148.618205 49.8002663,152.373198 40.3994674,160.628857 C35.126498,165.262679 34.6471372,165.768671 35.0732357,166.088245 C36.2450067,166.940442 51.9041278,174.130855 52.6231691,174.130855 C52.6764314,174.130855 53.2356858,174.370535 53.8748336,174.636847 C54.4873502,174.929789 56.9107856,175.888511 59.2543276,176.79397 C61.5978695,177.726061 64.6071904,178.871201 65.9121172,179.403824 C68.575233,180.442439 84.7403462,186.354556 84.9533955,186.381187 C85.0332889,186.381187 86.5246338,185.129523 88.2822903,183.611547 Z M24.207723,128.005688 C23.9147803,127.020335 23.6218375,125.28931 23.5952064,124.437113 C23.5685752,123.984383 26.0985353,121.933784 35.1531292,115.036314 C46.6045273,106.301294 51.3448735,102.679456 52.1438083,102.040309 C52.5166445,101.720735 52.4101198,101.214743 51.26498,97.3798559 C49.9067909,92.8259278 49.4007989,91.5742634 46.4713715,85.635515 C45.0599201,82.7327187 44.5805593,81.9870463 44.2343542,82.1202021 C43.9946738,82.2000956 41.5446072,83.5849158 38.7483356,85.1561542 C35.9786951,86.7273925 28.6817577,90.8818532 22.5832224,94.3439038 C16.4580559,97.8059544 11.424767,100.735382 11.3715047,100.841906 C11.3182423,100.948431 11.8242344,105.475728 12.5166445,110.881853 C13.2090546,116.31461 13.7416778,120.815275 13.6617843,120.948431 C13.3688415,121.454423 14.114514,121.001693 16.3515313,119.297299 C19.7869507,116.714077 27.3768309,110.961747 38.2689747,102.679456 C43.4087883,98.7646761 47.6964048,95.5689371 47.7762983,95.5689371 C47.8561917,95.5689371 46.5778961,96.7407081 44.9267643,98.1521595 C43.3022636,99.5636109 41.8908123,100.788644 41.8109188,100.868538 C41.7310253,100.975062 41.2516644,101.37453 40.7456724,101.800628 C39.9733688,102.439776 37.1238349,104.916474 35.8455393,106.088245 C35.6857523,106.248032 35.126498,106.700761 34.620506,107.12686 C34.114514,107.526327 33.2090546,108.325262 32.6231691,108.857885 C32.0372836,109.390508 30.3328895,110.855222 28.8681758,112.133518 C27.3768309,113.411813 25.9920107,114.610215 25.8055925,114.796634 C25.5925433,114.983052 24.2343542,116.181454 22.7696405,117.433118 C21.3049268,118.711414 19.840213,119.963078 19.5472703,120.22939 C18.1624501,121.454423 15.8988016,123.398498 15.2596538,123.877859 C14.5938748,124.410482 14.5938748,124.437113 15.0732357,124.809949 C16.5113182,125.875195 23.0093209,128.804623 24.0213049,128.857885 C24.3941411,128.857885 24.4207723,128.724729 24.207723,128.005688 Z" transform="translate(69.704854, 97.185267) scale(1, -1) translate(-69.704854, -97.185267) "></path>
                </g>
            </g>
        </g>
        <g id="Group-3"></g>
    </g>
</svg>